<svg
  xmlns="http://www.w3.org/2000/svg"
  viewBox="0 0 64 64"
  fill="none"
  stroke="currentColor"
  stroke-width="2"
  stroke-linecap="round"
  stroke-linejoin="round"
>
  <rect x="10" y="4" width="44" height="56" rx="5" />

  <rect x="17" y="10" width="30" height="10" rx="1.5" />

  <rect x="17" y="25" width="9" height="9" rx="1" />
  <rect x="29" y="25" width="9" height="9" rx="1" />
  <rect x="41" y="25" width="9" height="9" rx="1" />

  <rect x="17" y="38" width="9" height="9" rx="1" />
  <rect x="29" y="38" width="9" height="9" rx="1" />
  <rect x="41" y="38" width="9" height="18" rx="1" />

  <line x1="45.5" y1="28" x2="45.5" y2="32" />
  <line x1="43.5" y1="30" x2="47.5" y2="30" />

  <line x1="43.5" y1="43" x2="47.5" y2="43" />

  <line x1="43.5" y1="49" x2="47.5" y2="49" />
  <line x1="43.5" y1="53" x2="47.5" y2="53" />

  <rect x="26" y="50" width="12" height="5" rx="2.5" />
</svg>