<svg xmlns="http://www.w3.org/2000/svg" viewBox="0 0 1920 1484">
	<g fill="#0541C7">
		<path d="M558 988c-28,0 -33,-26 -46,-52l-37 -82c-3,-6 -5,-11 -8,-17 -3,-8 -18,-42 -21,-51 -2,-7 -2,-14 2,-19 8,-9 20,-11 33,-15l411 -116c35,-10 77,-23 112,-32l149 -43c24,-4 86,-24 112,-31 13,-3 26,-7 38,-10 10,-3 67,-20 76,-20 20,0 25,14 30,28l43 126c4,9 7,19 11,27 5,14 16,35 4,46 -1,1 -4,2 -5,3 -2,2 -3,2 -6,4 -14,5 -122,34 -145,41l-506 144c-6,1 -10,2 -16,4l-172 49c-7,2 -53,16 -59,16zm-157 -211c0,9 2,14 4,21l66 156c1,4 2,5 4,9l8 17c5,13 15,26 28,34 26,17 54,15 82,5 23,-7 67,-18 92,-26 91,-25 187,-51 277,-78l262 -73c6,-2 10,-3 16,-5 28,-7 64,-17 93,-25l31 -9c24,-8 66,-19 93,-26 19,-5 38,-11 51,-28 19,-27 8,-47 -1,-72 -4,-12 -9,-23 -13,-36l-26 -73c-4,-12 -8,-24 -12,-36 -4,-12 -8,-26 -13,-37 -9,-21 -31,-38 -61,-38 -14,0 -27,2 -40,6l-850 243c-18,5 -45,11 -60,21 -9,6 -14,10 -21,19 -5,8 -10,18 -10,31z"/>
		<path d="M781 747c3,3 14,21 16,26l16 25c-5,3 -12,4 -18,6l-7 -28c-1,-5 -2,-9 -3,-14 -1,-4 -4,-11 -4,-15zm-42 -23l31 140c3,0 39,-10 42,-11 -1,-6 -7,-18 -8,-25 28,-6 21,-10 29,5 2,4 5,8 6,12l20 -5c5,-2 15,-5 21,-5 -1,-4 -17,-28 -20,-32l-21 -31c-3,-6 -38,-59 -40,-65 -4,0 -24,7 -30,8 -10,3 -20,6 -30,9z"/>
		<path d="M702 805l-2 0c0,1 0,2 1,2 -8,-6 -2,-3 -10,-9l-9 -9c-3,-3 -2,-3 -5,-5 -7,-6 -1,-4 -9,-11 -6,-4 -5,-7 -9,-10 -10,-7 -4,-13 -16,-9 -8,2 -23,7 -30,8 1,7 29,67 35,81 3,6 21,46 23,48 1,0 29,-9 30,-9 1,-3 -1,-6 -3,-8 -2,-4 -3,-5 -4,-10l-9 -17c-6,-13 -13,-25 -18,-37l2 1c0,-1 0,-4 1,0 4,2 4,4 7,8l37 40c2,2 2,3 4,5l11 12c3,1 28,-8 36,-9l-32 -72c-4,-1 -1,2 -3,-3l-17 -41c-7,-16 -6,-16 -11,-15l-26 8 26 58c1,5 0,2 0,3z"/>
		<path d="M1211 623c0,-2 0,-2 2,-3 -2,0 -5,1 -1,-2 1,0 3,-1 4,-1 16,-2 19,24 27,42 3,9 7,20 10,29 2,5 4,11 0,15 -3,3 -8,5 -14,4 -2,-4 -30,-80 -30,-84 1,-1 -2,-3 2,0zm-49 -15l24 64c3,11 8,22 13,33 1,6 9,29 12,33 2,1 53,-13 67,-20l14 -12c0,-1 1,-5 1,-7 3,-13 -14,-50 -20,-68 -7,-19 -12,-35 -34,-38l3 0 -4 -2c-8,-1 -9,-1 -18,0 -8,2 -38,11 -49,13l-9 4z"/>
		<path d="M1316 599c-5,-18 13,-15 17,-10 1,1 4,9 5,12 2,4 3,8 5,13 3,8 6,17 9,25 4,12 15,32 5,38 -6,3 -11,0 -13,-3 -5,-7 -8,-16 -10,-25 -5,-16 -14,-33 -18,-50zm0 -37c-3,1 -9,3 -12,5l-11 7c5,-3 1,-1 3,0 -7,3 -12,10 -15,16 -7,17 9,51 17,71 7,18 7,26 23,36 7,4 18,5 27,4 10,-1 22,-4 30,-8l6 -4c20,-14 15,-30 7,-51 -2,-3 -3,-7 -5,-11 -2,-4 -2,-6 -4,-11 -8,-21 -12,-48 -38,-53 -7,-2 -23,0 -24,0l-4 -1z"/>
		<path d="M1112 657l3 6c4,8 25,42 26,45 -5,0 -11,3 -16,4 0,-4 -2,-9 -3,-13 -1,-5 -2,-9 -3,-14 -2,-4 -3,-9 -4,-14 -1,-4 -3,-9 -3,-14zm-39 -24c-1,4 24,122 27,137 12,-2 24,-8 37,-10 -1,-8 -7,-14 -5,-23 3,-2 17,-6 22,-6 2,0 9,16 10,22l37 -11c0,-3 -4,-9 -6,-12l-19 -31c-1,-1 -1,-2 -3,-4 -1,-2 -1,-1 -2,-3l-16 -28c-1,0 -1,-1 -1,-1l-10 -18c-3,-5 -10,-14 -12,-19 -3,-8 -3,-4 -5,-8 -18,4 -38,12 -54,15z"/>
		<path d="M965 661c15,32 2,29 28,23 6,-2 11,-4 17,-5 0,15 -2,28 -3,43 0,15 -2,24 -2,45 0,10 7,19 7,29 8,0 75,-21 83,-22 -1,-5 -9,-21 -9,-28 -4,0 -37,8 -40,10 0,-12 7,-91 7,-92 0,-4 -7,-21 -7,-26 -6,3 -32,10 -40,12 -7,2 -14,4 -21,5 -4,2 -16,4 -20,6z"/>
		<path d="M833 697l13 34c5,11 9,22 13,33l27 68 72 -20c0,-5 -10,-22 -10,-28 -7,0 -26,8 -34,10 -2,-9 -17,-46 -20,-54l-20 -54c-5,0 -15,4 -21,5 -3,1 -6,2 -9,3 -3,1 -8,2 -11,3z"/>
		<path d="M492 796l13 32c5,11 10,22 14,32 5,14 25,56 27,65 4,0 33,-7 34,-10 1,-3 -21,-47 -21,-55 7,-5 18,-6 24,-9 -3,-7 -6,-14 -8,-21 -9,1 -21,6 -29,6l-9 -19c-4,-11 3,-8 13,-12 4,-1 9,-3 13,-3 -2,-7 -5,-11 -7,-17 -1,-2 -2,-4 -2,-6 -4,1 -26,7 -31,9l-31 8z"/>
		<path d="M917 676c2,9 8,24 12,32 9,25 23,60 31,83 2,5 4,12 6,17 2,-1 5,-2 8,-3 6,-2 25,-7 29,-7 -3,-9 -8,-23 -12,-33l-38 -99c-5,1 -32,9 -36,10z"/>
		<path d="M657 894c-1,-3 0,-1 -2,-3 0,3 0,1 0,3 -1,-4 -6,-12 -7,-17 -8,-19 -47,-102 -48,-111l-34 10 55 129c6,-1 13,-4 19,-6 11,-2 16,-5 17,-5z"/>
	</g>
</svg>