<!-- public/svg/sello_pagado.svg -->
<svg xmlns="http://www.w3.org/2000/svg" viewBox="0 0 1920 1484">
	<g fill="#009933">
		<path d="M485 735c0,-13 2,-18 19,-24 5,-1 9,-3 14,-4 5,-1 10,-2 15,-4l57 -17c9,-2 19,-4 28,-8l86 -24c10,-2 19,-5 29,-8 28,-7 58,-16 86,-24 37,-10 79,-23 115,-32 10,-2 19,-5 29,-8 9,-2 20,-5 29,-8l151 -41c43,-13 93,-25 137,-38l58 -15c10,-3 19,-6 29,-9 26,-6 51,-18 61,18 12,45 39,137 54,179 8,22 14,44 23,65 14,39 -6,44 -39,53 -19,6 -37,11 -57,17l-356 102c-5,1 -10,2 -14,4 -10,3 -19,5 -28,8 -10,3 -19,5 -28,8 -6,1 -10,3 -15,4l-129 37c-9,3 -19,5 -28,8l-29 8c-21,6 -76,23 -100,29l-57 16c-21,7 -36,3 -45,-19 -5,-12 -10,-24 -15,-37l-55 -156c-5,-13 -9,-26 -13,-39 -3,-8 -12,-32 -12,-41zm-46 -3c0,25 4,34 13,59 9,27 21,66 30,91 3,7 5,15 8,22 11,27 21,63 32,90 10,27 12,41 33,59 11,10 29,16 49,16 14,0 47,-11 63,-15l91 -26c11,-3 21,-5 31,-8l153 -43c51,-14 104,-30 155,-43 41,-11 82,-23 122,-34l92 -25c11,-3 21,-6 31,-9l108 -29c18,-5 62,-16 75,-24 16,-10 31,-28 31,-47 0,-20 1,-16 -6,-35l-23 -69c-3,-8 -5,-15 -8,-23l-43 -141c-9,-33 -15,-59 -49,-73 -22,-10 -41,-5 -62,1l-62 17c-11,3 -22,6 -32,9l-62 17c-20,6 -42,11 -62,17 -41,12 -84,23 -125,35l-370 106c-27,7 -68,20 -93,26l-31 9c-33,11 -42,8 -69,29 -5,3 -7,6 -10,11 -5,7 -10,19 -10,30z"/>
		<path d="M1173 626c9,-2 14,-5 20,9 1,3 1,6 3,9 1,4 1,6 3,9 4,13 7,24 11,37 3,6 18,49 18,54 -1,6 -9,9 -15,9 -1,-5 -3,-11 -5,-15 -8,-25 -24,-73 -30,-95 -1,-4 -2,-5 -3,-8 0,-3 -1,-7 -2,-9zm-65 -19c0,6 12,44 14,49 6,17 10,33 16,49l31 97c11,-3 23,-7 34,-9l50 -15c4,-2 11,-4 15,-7 11,-5 19,-14 19,-27 0,-6 -10,-36 -13,-45 -5,-15 -10,-30 -14,-45 -5,-16 -12,-42 -21,-54 -6,-8 -19,-15 -30,-15 -19,0 -16,0 -35,5 -8,2 -14,4 -22,6l-44 11z"/>
		<path d="M838 713c0,10 2,17 5,27l14 45c6,21 17,53 29,68 17,22 48,21 71,10 11,-6 14,-11 18,-19 2,-2 0,-1 4,-2 0,3 4,10 6,12 10,-5 26,-7 35,-11 -2,-9 -5,-18 -8,-26 -3,-9 -6,-17 -9,-26l-17 -52c-5,0 -27,7 -34,9l-32 10c2,10 7,20 9,30l12 -4c2,6 4,13 6,18 3,9 11,29 -5,29 -10,0 -13,-19 -16,-28l-22 -65c-2,-8 -9,-28 -9,-36 0,-5 3,-6 7,-6 8,0 10,12 12,18 2,4 3,8 4,12 1,4 3,7 4,12l56 -16c-1,-12 -12,-36 -20,-46 -29,-38 -120,-12 -120,37z"/>
		<path d="M1315 588c0,-6 11,-16 18,4 1,6 3,11 5,16l26 82c2,8 8,21 0,25 -3,1 -6,1 -8,-1 -3,-3 -6,-13 -7,-17l-29 -90c-2,-5 -5,-13 -5,-19zm-53 11c0,11 4,23 7,31 7,23 19,66 27,85 5,13 14,24 26,30 23,11 56,3 75,-8 38,-23 23,-53 11,-92l-9 -29c-10,-29 -16,-72 -61,-72 -29,0 -76,17 -76,55z"/>
		<path d="M764 752l35 76c-6,0 -14,4 -20,5 0,-5 -2,-14 -3,-20l-12 -61zm-57 -34l4 26c1,8 3,16 4,25 3,17 7,34 10,51 2,16 6,34 9,50 3,17 5,35 9,51l43 -13c4,-1 12,-4 16,-4 -1,-6 -8,-24 -10,-34l20 -6c2,8 13,31 14,34 6,-3 51,-15 56,-17 -1,-4 -15,-29 -18,-34l-18 -35c-9,-15 -26,-52 -35,-70l-22 -47c-9,1 -68,20 -82,23z"/>
		<path d="M1045 672c0,0 0,0 1,1l34 78c-6,0 -11,4 -18,4l-13 -62c-2,-5 -4,-16 -4,-21zm-54 -32l26 151c2,8 4,17 5,25 1,8 3,17 5,25 4,0 54,-15 58,-17l-6 -16c-1,-3 -4,-13 -5,-16 5,-2 15,-5 19,-7l10 26c1,3 2,5 3,9 5,-1 21,-6 27,-8l28 -7c-1,-4 -30,-61 -35,-70l-35 -70c-2,-4 -21,-42 -22,-47l-78 22z"/>
		<path d="M626 780c13,-3 15,-5 22,9 3,7 8,22 8,31 0,5 -10,8 -14,9 0,-5 -2,-9 -4,-13 -3,-9 -8,-29 -12,-36zm-67 -18c0,5 44,136 48,146 2,8 13,43 16,48l43 -13c5,-1 10,-3 15,-3 0,-5 -17,-50 -20,-59 -2,-4 -7,-17 -7,-21 6,0 27,-7 33,-10 5,-3 8,-6 13,-9 14,-12 6,-35 2,-49 -3,-8 -6,-17 -9,-25 -7,-18 -13,-29 -40,-29 -24,0 -68,18 -94,24z"/>
	</g>
</svg>